<svg width="615" height="517" viewBox="0 0 615 517" fill="none" xmlns="http://www.w3.org/2000/svg">
<rect width="615" height="517" fill="white"/>
<path d="M290.055 491.537C289.262 491.553 288.495 491.826 287.866 492.315C286 487.335 283.112 484.134 279.867 484.134C276.622 484.134 273.734 487.335 271.868 492.315C271.239 491.826 270.472 491.553 269.679 491.537C265.992 491.537 263.004 497.835 263.004 505.603H296.73C296.73 497.835 293.742 491.537 290.055 491.537Z" fill="#3243CE"/>
<path d="M206.888 491.537C206.095 491.553 205.328 491.826 204.699 492.315C202.833 487.335 199.945 484.134 196.7 484.134C193.455 484.134 190.567 487.335 188.701 492.315C188.072 491.826 187.305 491.553 186.512 491.537C182.825 491.537 179.837 497.835 179.837 505.603H213.563C213.563 497.835 210.575 491.537 206.888 491.537Z" fill="#3243CE"/>
<path d="M530.23 491.537C529.437 491.553 528.669 491.826 528.041 492.315C526.175 487.335 523.287 484.134 520.042 484.134C516.797 484.134 513.908 487.335 512.043 492.315C511.414 491.826 510.647 491.553 509.853 491.537C506.167 491.537 503.178 497.835 503.178 505.603H536.905C536.905 497.835 533.916 491.537 530.23 491.537Z" fill="#3243CE"/>
<path d="M604.711 504.236H153.121V505.806H604.711V504.236Z" fill="#3F3D56"/>
<path d="M288.958 505.603H241.241V504.818C241.241 493.582 245.595 484.78 251.154 484.78C252.068 484.786 252.967 485.021 253.769 485.465C256.556 478.575 260.653 474.647 265.099 474.647C269.545 474.647 273.643 478.575 276.429 485.465C277.231 485.021 278.13 484.786 279.044 484.78C284.603 484.78 288.958 493.582 288.958 504.818V505.603ZM242.803 504.033H287.395C287.202 494.369 283.456 486.35 279.044 486.35C278.122 486.374 277.232 486.695 276.504 487.266L275.68 487.868L275.321 486.908C272.776 480.114 269.05 476.218 265.099 476.218C261.148 476.218 257.423 480.114 254.877 486.908L254.518 487.868L253.695 487.266C252.966 486.695 252.076 486.374 251.154 486.35C246.742 486.35 242.997 494.369 242.803 504.033Z" fill="#3F3D56"/>
<path d="M567.218 505.603H519.501V504.818C519.501 493.582 523.855 484.78 529.415 484.78C530.329 484.786 531.227 485.021 532.029 485.465C534.816 478.575 538.914 474.647 543.36 474.647C547.805 474.647 551.903 478.575 554.689 485.465C555.491 485.021 556.39 484.786 557.304 484.78C562.863 484.78 567.218 493.582 567.218 504.818V505.603ZM521.063 504.033H565.656C565.463 494.369 561.717 486.35 557.304 486.35C556.383 486.374 555.493 486.695 554.764 487.266L553.941 487.868L553.581 486.908C551.036 480.114 547.31 476.218 543.36 476.218C539.409 476.218 535.683 480.114 533.138 486.908L532.778 487.868L531.954 487.266C531.226 486.695 530.336 486.374 529.415 486.35C525.002 486.35 521.256 494.369 521.063 504.033Z" fill="#3F3D56"/>
<path d="M212.009 505.603H164.292V504.818C164.292 493.582 168.646 484.78 174.205 484.78C175.119 484.786 176.018 485.021 176.82 485.465C179.606 478.575 183.704 474.647 188.15 474.647C192.596 474.647 196.694 478.575 199.48 485.465C200.282 485.021 201.181 484.786 202.095 484.78C207.654 484.78 212.009 493.582 212.009 504.818V505.603ZM165.854 504.033H210.446C210.253 494.369 206.507 486.35 202.095 486.35C201.173 486.374 200.283 486.695 199.555 487.266L198.731 487.868L198.372 486.908C195.827 480.114 192.101 476.218 188.15 476.218C184.199 476.218 180.474 480.114 177.928 486.908L177.569 487.868L176.746 487.266C176.017 486.695 175.127 486.374 174.205 486.35C169.793 486.35 166.048 494.369 165.854 504.033Z" fill="#3F3D56"/>
<path d="M387.723 222.753C387.87 222.519 387.488 222.01 386.871 221.615C386.254 221.22 385.635 221.09 385.489 221.324C385.342 221.557 385.723 222.067 386.341 222.462C386.958 222.856 387.577 222.987 387.723 222.753Z" fill="#3F3D56"/>
<path d="M385.557 218.404C385.885 217.88 386.406 217.509 387.005 217.373C387.604 217.238 388.232 217.348 388.751 217.679L418.081 236.44C418.599 236.771 418.966 237.298 419.101 237.903C419.235 238.508 419.126 239.142 418.798 239.665V239.665L385.557 218.404Z" fill="#3243CE"/>
<path d="M382.784 219.396L383.706 217.924C383.931 217.566 384.287 217.313 384.696 217.22C385.105 217.127 385.534 217.202 385.889 217.429L419.283 238.789C419.703 239.058 420 239.484 420.109 239.973C420.218 240.463 420.13 240.976 419.864 241.4L419.097 242.623L382.784 219.396Z" fill="#3F3D56"/>
<path d="M387.756 220.204L387.402 220.769L389.637 222.198L389.99 221.634L387.756 220.204Z" fill="#D0CDE1"/>
<path d="M390.828 222.17L390.475 222.734L392.709 224.163L393.063 223.599L390.828 222.17Z" fill="#D0CDE1"/>
<path d="M435.091 153.617C446.605 153.617 455.938 144.19 455.938 132.56C455.938 120.931 446.605 111.503 435.091 111.503C423.578 111.503 414.244 120.931 414.244 132.56C414.244 144.19 423.578 153.617 435.091 153.617Z" fill="#FFB8B8"/>
<path d="M436.363 147.454C436.363 147.454 446.532 163.632 443.989 168.255C441.447 172.877 433.566 185.46 433.566 185.46C433.566 185.46 468.65 159.267 464.074 153.617C464.074 153.617 453.65 144.63 453.142 138.98L436.363 147.454Z" fill="#FFB8B8"/>
<path d="M452.633 456.618L453.65 472.797L469.921 469.972L468.904 454.308L452.633 456.618Z" fill="#FFB8B8"/>
<path d="M380.178 465.621L377.127 475.892L395.177 479.231L397.72 469.729L380.178 465.621Z" fill="#FFB8B8"/>
<path d="M454.286 238.744L455.938 250.172C455.938 250.172 476.785 292.029 454.159 312.572L423.651 388.583C423.651 388.583 420.346 428.129 410.685 441.996L401.787 473.582L375.347 466.648L396.703 398.084C396.703 398.084 396.448 369.324 399.499 362.904L412.973 301.787L415.388 236.433C415.388 236.433 450.981 233.865 454.286 238.744Z" fill="#2F2E41"/>
<path d="M450.345 309.99L461.786 388.055C461.786 388.055 467.887 418.1 468.396 429.655C468.904 441.211 470.938 456.105 470.938 456.105L450.345 459.443L430.007 358.78L450.345 309.99Z" fill="#2F2E41"/>
<path d="M472.972 461.754L456.701 462.782C456.701 462.782 450.643 455.848 451.003 459.443C451.362 463.038 447.549 478.189 447.549 478.189L434.837 491.542C434.837 491.542 409.668 491.542 413.482 503.868C417.295 516.194 447.04 505.923 447.04 505.923L458.481 502.071V507.207C458.481 507.207 478.056 510.031 478.565 504.896C479.073 499.76 478.565 493.34 477.802 492.826C477.039 492.313 472.972 461.754 472.972 461.754Z" fill="#2F2E41"/>
<path d="M397.775 474.43C397.775 474.43 386.144 473.49 384.516 472.081C382.888 470.671 380.329 464.797 376.84 468.556C373.351 472.315 360.79 484.533 360.79 484.533L348.695 490.407C348.695 490.407 332.878 486.178 327.528 496.045C322.178 505.913 353.812 516.251 361.953 512.962L372.188 510.847L371.723 515.781C371.723 515.781 386.144 519.071 388.238 514.842C390.331 510.612 391.959 505.678 391.029 504.269C390.099 502.859 397.775 474.43 397.775 474.43Z" fill="#2F2E41"/>
<path d="M483.649 179.81L465.64 220.058L457.82 237.53L454.921 244.009L412.973 243.495L417.295 213.964C411.194 198.043 425.685 191.623 425.685 191.623L437.888 178.488V180.581C437.888 180.581 449.837 166.2 455.176 157.983C460.514 149.766 467.887 152.847 467.887 152.847C480.599 151.563 483.649 179.81 483.649 179.81Z" fill="#5538A9"/>
<path opacity="0.2" d="M465.64 220.058L457.82 237.53C455.308 232.784 453.396 227.41 453.396 224.236C453.396 215.505 462.04 220.127 462.04 220.127C462.04 220.127 455.048 181.48 455.048 169.924C455.048 162.248 461.384 196.312 465.64 220.058Z" fill="black"/>
<path d="M458.735 222.952L420.854 222.181C420.854 222.181 393.143 224.492 397.211 235.791C401.279 247.09 423.397 235.791 423.397 235.791L467.633 242.725L458.735 222.952Z" fill="#FFB8B8"/>
<path d="M465.853 154.901C465.853 154.901 452.633 155.929 452.633 167.484C452.633 179.04 464.582 220.127 464.582 220.127C464.582 220.127 455.938 215.505 455.938 224.236C455.938 232.967 470.43 258.389 471.955 241.441C471.955 241.441 493.819 252.226 492.548 231.939C491.276 211.653 477.548 168.768 477.548 168.768C477.548 168.768 476.023 154.131 465.853 154.901Z" fill="#5538A9"/>
<path d="M435.785 130.27C434.325 128.843 434.352 126.436 433.175 124.763C431.328 122.136 427.481 122.312 424.323 122.766C422.21 122.976 420.133 123.463 418.145 124.216C417.273 124.578 416.496 125.14 415.876 125.858C415.256 126.575 414.809 127.428 414.571 128.35C414.324 129.385 413.778 126.448 413.223 122.645C412.654 118.765 413.32 114.803 415.124 111.329C416.927 107.855 419.776 105.05 423.26 103.317C423.301 103.296 423.342 103.276 423.383 103.256C426.956 101.502 430.698 99.9535 434.647 99.5183C438.595 99.0831 442.809 99.8711 445.905 102.383C447.321 103.532 448.472 105.006 449.99 106.012C452.656 107.781 456.032 107.866 459.2 108.239C462.807 108.554 466.306 109.639 469.468 111.421C472.645 113.236 474.986 116.244 475.983 119.791C476.987 123.919 475.349 128.798 471.332 130.589C470.63 130.888 470.008 131.349 469.516 131.935C466.217 136.009 471.543 138.238 472.315 141.784C472.959 144.743 470.143 147.422 467.254 148.236C464.535 148.919 461.666 148.625 459.138 147.405C456.61 146.185 454.581 144.115 453.398 141.55C452.407 139.229 452.182 136.661 451.912 134.148C451.604 131.272 444.134 126.061 449.177 129.981C450.155 130.721 450.926 131.706 451.413 132.838C452.947 136.547 449.764 138.653 448.056 141.301C447.127 142.791 446.629 144.513 446.62 146.274C446.61 148.035 447.09 149.763 448.003 151.262C445.818 150.027 444.129 148.059 443.226 145.699C442.324 143.339 442.265 140.735 443.061 138.336C443.519 137.078 444.213 135.914 444.629 134.641C445.278 132.654 444.704 128.793 441.801 129.576C439.729 130.134 437.958 132.394 435.785 130.27Z" fill="#2F2E41"/>
<path d="M605.673 400.713C610.824 400.713 615 396.495 615 391.291C615 386.088 610.824 381.87 605.673 381.87C600.522 381.87 596.346 386.088 596.346 391.291C596.346 396.495 600.522 400.713 605.673 400.713Z" fill="#D0CDE1"/>
<path d="M582.355 437.612C590.94 437.612 597.9 430.582 597.9 421.91C597.9 413.238 590.94 406.208 582.355 406.208C573.769 406.208 566.81 413.238 566.81 421.91C566.81 430.582 573.769 437.612 582.355 437.612Z" fill="#3243CE"/>
<path d="M587.331 431.331H585.776V504.345H587.331V431.331Z" fill="#3F3D56"/>
<path d="M587.019 432.902C583.79 432.902 580.634 431.935 577.95 430.123C575.266 428.311 573.174 425.736 571.938 422.724C570.703 419.711 570.38 416.396 571.01 413.198C571.639 410 573.194 407.062 575.477 404.756C577.76 402.451 580.668 400.88 583.834 400.244C587 399.608 590.282 399.935 593.265 401.182C596.247 402.43 598.797 404.544 600.59 407.255C602.384 409.966 603.341 413.154 603.341 416.415C603.336 420.786 601.615 424.976 598.555 428.067C595.495 431.158 591.346 432.897 587.019 432.902ZM587.019 401.498C584.098 401.498 581.242 402.372 578.814 404.012C576.385 405.651 574.492 407.98 573.375 410.706C572.257 413.432 571.964 416.431 572.534 419.325C573.104 422.218 574.511 424.876 576.576 426.962C578.641 429.048 581.273 430.469 584.137 431.045C587.002 431.62 589.972 431.325 592.67 430.196C595.369 429.067 597.675 427.155 599.298 424.702C600.92 422.249 601.787 419.365 601.787 416.415C601.782 412.46 600.225 408.668 597.456 405.872C594.688 403.075 590.934 401.502 587.019 401.498V401.498Z" fill="#3F3D56"/>
<path d="M600.232 404.638C598.234 404.638 596.28 404.039 594.618 402.918C592.957 401.796 591.661 400.202 590.897 398.337C590.132 396.473 589.932 394.42 590.322 392.441C590.712 390.461 591.674 388.642 593.087 387.215C594.5 385.787 596.301 384.815 598.261 384.422C600.221 384.028 602.252 384.23 604.099 385.002C605.945 385.775 607.523 387.083 608.634 388.761C609.744 390.44 610.336 392.413 610.336 394.432C610.333 397.138 609.268 399.732 607.374 401.645C605.479 403.559 602.911 404.635 600.232 404.638ZM600.232 385.796C598.541 385.796 596.888 386.302 595.482 387.251C594.076 388.2 592.98 389.549 592.333 391.127C591.686 392.705 591.516 394.441 591.846 396.117C592.176 397.792 592.991 399.331 594.186 400.538C595.382 401.746 596.905 402.569 598.564 402.902C600.223 403.235 601.942 403.064 603.504 402.41C605.066 401.757 606.402 400.65 607.341 399.23C608.28 397.809 608.782 396.14 608.782 394.432C608.779 392.142 607.878 389.947 606.275 388.328C604.672 386.709 602.499 385.798 600.232 385.796V385.796Z" fill="#3F3D56"/>
</svg>
