<svg width="792" height="659" viewBox="0 0 792 659" fill="none" xmlns="http://www.w3.org/2000/svg">
<rect width="792" height="659" fill="#E5E5E5"/>
<g clip-path="url(#clip0)">
<path d="M373.175 626.084C372.154 626.105 371.167 626.452 370.358 627.075C367.958 620.731 364.242 616.654 360.067 616.654C355.892 616.654 352.176 620.731 349.776 627.075C348.967 626.452 347.98 626.105 346.959 626.084C342.216 626.084 338.372 634.105 338.372 644H381.763C381.763 634.105 377.918 626.084 373.175 626.084Z" fill="#3243CE"/>
<path d="M266.175 626.084C265.154 626.105 264.167 626.452 263.358 627.075C260.958 620.731 257.242 616.654 253.067 616.654C248.892 616.654 245.176 620.731 242.776 627.075C241.967 626.452 240.98 626.105 239.959 626.084C235.216 626.084 231.372 634.105 231.372 644H274.763C274.763 634.105 270.918 626.084 266.175 626.084Z" fill="#3243CE"/>
<path d="M682.175 626.084C681.154 626.105 680.167 626.452 679.358 627.075C676.958 620.731 673.242 616.654 669.067 616.654C664.892 616.654 661.176 620.731 658.776 627.075C657.967 626.452 656.98 626.105 655.959 626.084C651.216 626.084 647.372 634.105 647.372 644H690.763C690.763 634.105 686.918 626.084 682.175 626.084Z" fill="#3243CE"/>
<path d="M778 642.258H197V644.258H778V642.258Z" fill="#3F3D56"/>
<path d="M371.763 644H310.372V643C310.372 628.688 315.974 617.478 323.126 617.478C324.302 617.485 325.458 617.785 326.49 618.35C330.075 609.574 335.347 604.571 341.067 604.571C346.787 604.571 352.059 609.574 355.644 618.35C356.676 617.785 357.832 617.485 359.008 617.478C366.16 617.478 371.763 628.688 371.763 643V644ZM312.382 642H369.753C369.504 629.691 364.685 619.478 359.008 619.478C357.822 619.507 356.677 619.916 355.74 620.644L354.681 621.411L354.218 620.188C350.943 611.534 346.15 606.571 341.067 606.571C335.984 606.571 331.191 611.534 327.916 620.188L327.454 621.411L326.395 620.644C325.457 619.916 324.312 619.507 323.126 619.478C317.45 619.478 312.631 629.691 312.382 642Z" fill="#3F3D56"/>
<path d="M729.763 644H668.371V643C668.371 628.688 673.974 617.478 681.126 617.478C682.302 617.485 683.458 617.785 684.49 618.35C688.075 609.574 693.348 604.571 699.067 604.571C704.786 604.571 710.059 609.574 713.644 618.35C714.676 617.785 715.832 617.485 717.008 617.478C724.16 617.478 729.763 628.688 729.763 643V644ZM670.381 642H727.753C727.504 629.691 722.685 619.478 717.008 619.478C715.822 619.507 714.677 619.916 713.74 620.644L712.681 621.411L712.218 620.188C708.943 611.534 704.149 606.571 699.067 606.571C693.984 606.571 689.19 611.534 685.916 620.188L685.453 621.411L684.394 620.644C683.457 619.916 682.312 619.507 681.126 619.478C675.449 619.478 670.63 629.691 670.381 642Z" fill="#3F3D56"/>
<path d="M272.763 644H211.372V643C211.372 628.688 216.974 617.478 224.126 617.478C225.302 617.485 226.458 617.785 227.49 618.35C231.075 609.574 236.347 604.571 242.067 604.571C247.787 604.571 253.059 609.574 256.644 618.35C257.676 617.785 258.832 617.485 260.008 617.478C267.16 617.478 272.763 628.688 272.763 643V644ZM213.382 642H270.753C270.504 629.691 265.685 619.478 260.008 619.478C258.822 619.507 257.677 619.916 256.74 620.644L255.681 621.411L255.218 620.188C251.943 611.534 247.15 606.571 242.067 606.571C236.984 606.571 232.191 611.534 228.916 620.188L228.454 621.411L227.395 620.644C226.457 619.916 225.312 619.507 224.126 619.478C218.45 619.478 213.631 629.691 213.382 642Z" fill="#3F3D56"/>
<path d="M498.831 283.727C499.019 283.429 498.529 282.78 497.735 282.277C496.941 281.775 496.144 281.608 495.956 281.906C495.767 282.204 496.258 282.853 497.052 283.355C497.846 283.858 498.642 284.024 498.831 283.727Z" fill="#3F3D56"/>
<path d="M496.044 278.187C496.466 277.519 497.137 277.047 497.907 276.874C498.678 276.701 499.485 276.842 500.153 277.264L537.888 301.16C538.555 301.582 539.027 302.252 539.2 303.023C539.373 303.793 539.233 304.601 538.81 305.268L496.044 278.187Z" fill="#3243CE"/>
<path d="M492.476 279.451L493.663 277.576C493.952 277.12 494.41 276.797 494.936 276.679C495.463 276.561 496.015 276.657 496.471 276.945L539.435 304.153C539.975 304.495 540.357 305.037 540.497 305.661C540.637 306.284 540.524 306.938 540.182 307.478L539.196 309.036L492.476 279.451Z" fill="#3F3D56"/>
<path d="M498.873 280.48L498.418 281.199L501.293 283.02L501.748 282.301L498.873 280.48Z" fill="#D0CDE1"/>
<path d="M502.826 282.984L502.371 283.702L505.246 285.523L505.701 284.804L502.826 282.984Z" fill="#D0CDE1"/>
<path d="M559.773 195.667C574.586 195.667 586.594 183.659 586.594 168.846C586.594 154.033 574.586 142.025 559.773 142.025C544.96 142.025 532.952 154.033 532.952 168.846C532.952 183.659 544.96 195.667 559.773 195.667Z" fill="#FFB8B8"/>
<path d="M561.409 187.817C561.409 187.817 574.492 208.423 571.221 214.311C567.95 220.198 557.811 236.225 557.811 236.225C557.811 236.225 602.948 202.863 597.061 195.667C597.061 195.667 583.65 184.219 582.996 177.023L561.409 187.817Z" fill="#FFB8B8"/>
<path d="M582.342 581.607L583.65 602.214L604.584 598.616L603.275 578.664L582.342 581.607Z" fill="#FFB8B8"/>
<path d="M489.123 593.074L485.198 606.157L508.421 610.409L511.692 598.307L489.123 593.074Z" fill="#FFB8B8"/>
<path d="M584.468 304.095L586.594 318.65C586.594 318.65 613.415 371.965 584.304 398.132L545.054 494.949C545.054 494.949 540.802 545.32 528.373 562.982L516.925 603.214L482.908 594.382L510.383 507.051C510.383 507.051 510.056 470.417 513.981 462.24L531.317 384.394L534.424 301.151C534.424 301.151 580.216 297.881 584.468 304.095Z" fill="#2F2E41"/>
<path d="M579.398 394.842L594.117 494.276C594.117 494.276 601.967 532.545 602.621 547.263C603.275 561.982 605.892 580.953 605.892 580.953L579.398 585.205L553.231 456.988L579.398 394.842Z" fill="#2F2E41"/>
<path d="M608.509 588.149L587.575 589.457C587.575 589.457 579.782 580.626 580.244 585.205C580.706 589.784 575.8 609.082 575.8 609.082L559.446 626.091C559.446 626.091 527.065 626.091 531.971 641.791C536.877 657.491 575.146 644.407 575.146 644.407L589.865 639.501V646.043C589.865 646.043 615.05 649.641 615.704 643.099C616.359 636.557 615.704 628.38 614.723 627.726C613.742 627.072 608.509 588.149 608.509 588.149Z" fill="#2F2E41"/>
<path d="M511.763 604.294C511.763 604.294 496.8 603.097 494.705 601.302C492.61 599.506 489.318 592.025 484.829 596.813C480.34 601.601 464.18 617.163 464.18 617.163L448.618 624.644C448.618 624.644 428.269 619.257 421.385 631.826C414.502 644.396 455.202 657.563 465.676 653.373L478.844 650.68L478.245 656.965C478.245 656.965 496.8 661.154 499.493 655.768C502.186 650.381 504.281 644.096 503.084 642.301C501.887 640.505 511.763 604.294 511.763 604.294Z" fill="#2F2E41"/>
<path d="M622.246 229.029L599.076 280.293L589.014 302.548L585.286 310.8L531.317 310.146L536.877 272.532C529.027 252.252 547.671 244.075 547.671 244.075L563.371 227.345V230.011C563.371 230.011 578.744 211.694 585.613 201.227C592.481 190.761 601.967 194.686 601.967 194.686C618.321 193.05 622.246 229.029 622.246 229.029Z" fill="#575A89"/>
<path opacity="0.2" d="M599.076 280.293L589.014 302.548C585.783 296.504 583.323 289.658 583.323 285.615C583.323 274.494 594.444 280.382 594.444 280.382C594.444 280.382 585.449 231.155 585.449 216.437C585.449 206.66 593.6 250.048 599.076 280.293Z" fill="black"/>
<path d="M590.192 283.979L541.456 282.998C541.456 282.998 505.804 285.942 511.038 300.334C516.271 314.725 544.727 300.334 544.727 300.334L601.64 309.165L590.192 283.979Z" fill="#FFB8B8"/>
<path d="M599.35 197.302C599.35 197.302 582.342 198.611 582.342 213.329C582.342 228.048 597.715 280.382 597.715 280.382C597.715 280.382 586.594 274.494 586.594 285.615C586.594 296.736 605.238 329.117 607.2 307.53C607.2 307.53 635.33 321.267 633.694 295.427C632.059 269.588 614.396 214.965 614.396 214.965C614.396 214.965 612.434 196.321 599.35 197.302Z" fill="#575A89"/>
<path d="M560.665 165.929C558.787 164.111 558.822 161.045 557.308 158.914C554.931 155.568 549.982 155.793 545.918 156.37C543.2 156.637 540.528 157.258 537.97 158.217C536.848 158.679 535.849 159.395 535.051 160.308C534.253 161.222 533.679 162.309 533.372 163.482C533.054 164.801 532.352 161.061 531.638 156.217C530.906 151.274 531.763 146.227 534.083 141.803C536.404 137.378 540.069 133.805 544.551 131.597C544.605 131.571 544.657 131.545 544.71 131.52C549.306 129.286 554.121 127.313 559.201 126.759C564.281 126.205 569.702 127.208 573.686 130.408C575.507 131.871 576.988 133.748 578.941 135.03C582.371 137.283 586.715 137.392 590.791 137.867C595.431 138.268 599.933 139.65 604 141.919C608.089 144.232 611.101 148.063 612.383 152.581C613.674 157.839 611.568 164.054 606.399 166.335C605.496 166.715 604.695 167.302 604.062 168.049C599.818 173.238 606.67 176.077 607.664 180.594C608.493 184.363 604.869 187.775 601.152 188.813C597.654 189.682 593.963 189.308 590.71 187.754C587.458 186.2 584.848 183.564 583.326 180.296C582.051 177.34 581.761 174.069 581.414 170.868C581.017 167.204 571.407 160.568 577.895 165.56C579.154 166.503 580.146 167.757 580.773 169.2C582.746 173.924 578.65 176.606 576.453 179.979C575.257 181.876 574.617 184.071 574.605 186.313C574.593 188.556 575.21 190.757 576.385 192.667C573.574 191.093 571.4 188.586 570.239 185.581C569.078 182.575 569.003 179.258 570.026 176.203C570.616 174.6 571.509 173.118 572.044 171.496C572.879 168.965 572.141 164.047 568.406 165.044C565.74 165.756 563.461 168.634 560.665 165.929Z" fill="#2F2E41"/>
<path d="M779.237 510.398C785.865 510.398 791.237 505.026 791.237 498.398C791.237 491.771 785.865 486.398 779.237 486.398C772.61 486.398 767.237 491.771 767.237 498.398C767.237 505.026 772.61 510.398 779.237 510.398Z" fill="#D0CDE1"/>
<path d="M749.237 557.398C760.283 557.398 769.237 548.444 769.237 537.398C769.237 526.353 760.283 517.398 749.237 517.398C738.191 517.398 729.237 526.353 729.237 537.398C729.237 548.444 738.191 557.398 749.237 557.398Z" fill="#3243CE"/>
<path d="M755.639 549.398H753.639V642.398H755.639V549.398Z" fill="#3F3D56"/>
<path d="M755.237 551.398C751.084 551.398 747.024 550.167 743.57 547.859C740.117 545.552 737.425 542.272 735.836 538.435C734.246 534.597 733.83 530.375 734.641 526.301C735.451 522.228 737.451 518.486 740.388 515.549C743.325 512.612 747.067 510.612 751.14 509.802C755.214 508.992 759.436 509.407 763.274 510.997C767.111 512.586 770.391 515.278 772.698 518.731C775.006 522.185 776.237 526.245 776.237 530.398C776.231 535.966 774.016 541.304 770.079 545.241C766.143 549.178 760.805 551.392 755.237 551.398ZM755.237 511.398C751.479 511.398 747.806 512.513 744.681 514.6C741.557 516.688 739.122 519.656 737.683 523.127C736.245 526.599 735.869 530.419 736.602 534.105C737.335 537.791 739.145 541.176 741.802 543.833C744.459 546.491 747.845 548.3 751.53 549.033C755.216 549.766 759.036 549.39 762.508 547.952C765.98 546.514 768.947 544.079 771.035 540.954C773.123 537.83 774.237 534.156 774.237 530.398C774.231 525.361 772.228 520.532 768.666 516.97C765.104 513.408 760.275 511.404 755.237 511.398Z" fill="#3F3D56"/>
<path d="M772.237 515.398C769.666 515.398 767.153 514.636 765.015 513.207C762.877 511.779 761.211 509.749 760.227 507.373C759.243 504.998 758.985 502.384 759.487 499.862C759.989 497.34 761.227 495.024 763.045 493.206C764.863 491.388 767.179 490.15 769.701 489.648C772.223 489.146 774.837 489.404 777.212 490.388C779.588 491.372 781.618 493.038 783.046 495.176C784.475 497.314 785.237 499.827 785.237 502.398C785.233 505.845 783.862 509.149 781.425 511.586C778.988 514.024 775.684 515.394 772.237 515.398ZM772.237 491.398C770.062 491.398 767.935 492.043 766.126 493.252C764.317 494.461 762.907 496.179 762.075 498.189C761.242 500.199 761.024 502.411 761.449 504.544C761.873 506.678 762.921 508.638 764.459 510.176C765.997 511.715 767.957 512.763 770.091 513.187C772.225 513.611 774.437 513.394 776.447 512.561C778.457 511.728 780.175 510.319 781.383 508.51C782.592 506.701 783.237 504.574 783.237 502.398C783.234 499.482 782.074 496.686 780.012 494.624C777.95 492.562 775.154 491.402 772.237 491.398Z" fill="#3F3D56"/>
</g>
<path d="M601.412 115L601.633 96.1295H592V42H728V96.1295H624.273L601.412 115ZM593.271 95.0576H602.916L602.714 112.426L623.755 95.0576H726.729V43.0719H593.271V95.0576Z" fill="#D0CDE1"/>
<defs>
<clipPath id="clip0">
<rect width="791.237" height="658.517" fill="white"/>
</clipPath>
</defs>
</svg>
